<?xml version="1.0" standalone="no"?>
<!DOCTYPE svg PUBLIC "-//W3C//DTD SVG 20010904//EN"
 "http://www.w3.org/TR/2001/REC-SVG-20010904/DTD/svg10.dtd">
<svg version="1.0" xmlns="http://www.w3.org/2000/svg"
 width="600.000000pt" height="600.000000pt" viewBox="0 0 600.000000 600.000000"
 preserveAspectRatio="xMidYMid meet">
<g transform="translate(0.000000,600.000000) scale(0.100000,-0.100000)"
fill="#000000" stroke="none">
<path d="M3055 3591 c-3 -6 -13 -7 -22 -4 -11 4 -14 3 -9 -5 5 -8 -2 -12 -21
-12 -22 0 -25 -2 -13 -10 13 -9 13 -10 0 -11 -8 -1 -19 -1 -23 0 -5 1 -6 -2
-3 -7 2 -4 -6 -16 -19 -26 -14 -10 -22 -22 -19 -27 3 -5 1 -9 -4 -9 -6 0 -13
-7 -16 -16 -4 -10 -2 -13 7 -8 9 6 8 3 -1 -8 -17 -21 1 -98 23 -98 16 0 45 27
45 43 0 6 21 30 47 54 52 46 57 47 218 45 122 -1 137 -3 123 -19 -6 -7 -17
-13 -24 -13 -13 0 -36 -16 -69 -47 -7 -7 -15 -9 -19 -6 -3 4 -6 1 -6 -5 0 -7
-7 -12 -16 -12 -8 0 -12 -4 -9 -10 3 -5 2 -10 -2 -10 -15 0 -133 -114 -133
-128 0 -7 -4 -10 -10 -7 -5 3 -10 1 -10 -5 0 -6 -6 -18 -12 -26 -53 -62 -80
-86 -102 -88 -13 0 -23 -3 -20 -5 2 -2 -7 -10 -21 -17 -23 -12 -69 -9 -61 5 2
3 -25 7 -60 7 -35 1 -64 -1 -64 -5 0 -3 -12 -7 -27 -7 -56 -3 -91 -9 -86 -16
2 -5 -6 -9 -19 -10 -36 -2 -42 -3 -53 -9 -5 -4 -34 -12 -62 -20 -29 -7 -53
-17 -53 -22 0 -5 -7 -7 -15 -4 -8 4 -17 1 -21 -4 -3 -6 -22 -17 -40 -25 -19
-8 -34 -19 -34 -25 0 -5 -4 -8 -9 -5 -5 3 -11 -1 -15 -9 -3 -8 -11 -15 -17
-15 -22 0 -152 -128 -143 -141 3 -5 0 -9 -5 -9 -6 0 -11 -7 -11 -15 0 -8 -4
-15 -8 -15 -5 0 -9 -6 -9 -12 -1 -7 -4 -41 -8 -76 -5 -49 -3 -69 9 -87 9 -14
16 -34 16 -46 0 -15 5 -19 15 -15 8 3 14 2 12 -2 -3 -9 40 -52 53 -52 5 0 18
-9 29 -21 11 -12 25 -18 31 -14 7 4 15 3 19 -3 7 -12 48 -19 160 -29 80 -6
242 13 253 30 4 7 12 6 24 -4 11 -9 15 -9 10 -1 -4 7 -2 12 6 12 13 0 144 65
164 81 6 5 15 5 19 1 5 -4 5 -2 1 5 -4 8 2 15 18 19 14 3 31 13 38 22 11 13
11 14 -2 7 -9 -5 -12 -5 -7 1 5 5 13 9 17 9 9 0 140 134 140 142 0 2 -6 1 -12
-2 -7 -4 -3 3 10 14 13 11 24 24 25 28 1 4 5 7 9 6 5 -2 8 5 8 15 0 13 2 14 9
4 6 -10 10 -9 14 7 3 12 1 18 -4 15 -5 -3 5 19 22 48 17 29 36 56 42 60 6 4 8
10 5 14 -4 3 4 21 17 39 14 17 22 35 17 40 -4 5 -1 5 6 1 6 -4 13 -2 13 3 1 6
3 16 4 21 1 6 3 13 4 18 1 4 6 0 12 -8 9 -13 10 -13 5 2 -5 16 33 82 60 103 7
5 14 16 16 24 5 23 31 51 41 44 6 -3 7 -1 3 5 -4 7 -2 12 3 12 6 0 10 3 10 8
-3 19 2 25 11 12 8 -12 10 -11 10 5 0 23 34 57 46 47 3 -4 5 0 2 8 -3 9 11 26
36 45 23 16 45 35 49 42 4 7 17 13 27 13 11 0 20 5 20 10 0 12 43 31 79 36 13
2 27 8 31 14 4 6 14 8 23 4 10 -3 17 -1 17 5 0 7 6 11 13 10 17 -3 69 12 85
24 29 23 -3 65 -43 57 -5 -1 -72 -2 -147 -2 -76 -1 -138 -4 -138 -8 0 -5 -10
-7 -22 -7 -13 1 -41 -2 -63 -6 -28 -6 -36 -5 -25 2 12 8 7 11 -20 11 -19 1
-53 8 -75 17 -47 18 -310 30 -320 14z m279 -37 c43 -8 99 -22 124 -31 35 -12
54 -13 81 -5 20 6 99 13 176 17 77 3 150 8 163 11 15 3 22 0 22 -11 0 -11 -10
-15 -36 -15 -50 0 -176 -44 -237 -84 -120 -76 -254 -232 -362 -419 -158 -275
-270 -415 -388 -486 -207 -123 -458 -147 -635 -60 -101 49 -142 138 -113 244
29 108 172 227 353 295 102 38 335 84 366 73 20 -8 14 -26 -7 -20 -27 7 -172
-18 -274 -48 -248 -72 -417 -212 -417 -348 0 -66 21 -111 69 -145 85 -62 213
-66 329 -12 116 54 196 148 376 443 36 60 66 110 66 113 0 2 -16 4 -35 4 -49
0 -44 18 7 22 40 3 46 8 119 98 43 52 106 119 141 148 70 59 179 127 222 138
40 10 22 19 -72 38 -211 41 -375 -2 -413 -109 -7 -19 -17 -35 -21 -35 -12 0
-10 54 3 87 41 109 170 141 393 97z m-417 -503 c15 -19 17 -51 4 -51 -5 0 -13
-9 -16 -20 -4 -11 -10 -18 -14 -16 -4 3 -8 -5 -8 -16 -1 -12 -6 -24 -11 -27
-5 -3 -19 -26 -33 -51 -13 -25 -33 -53 -44 -63 -11 -10 -14 -15 -7 -12 11 6
11 3 1 -13 -7 -12 -17 -18 -21 -16 -4 3 -8 -2 -8 -11 0 -10 -27 -48 -60 -87
-33 -38 -60 -67 -60 -65 0 2 -15 -10 -34 -28 -22 -20 -45 -32 -62 -32 -14 0
-29 -5 -33 -10 -14 -21 -72 -34 -134 -31 -36 2 -63 7 -60 12 3 4 -3 5 -14 2
-11 -4 -33 0 -49 9 -16 8 -25 15 -19 15 5 0 -1 7 -13 16 -16 11 -21 22 -17 37
5 16 4 18 -3 8 -15 -21 -23 1 -23 64 -1 47 4 63 32 105 26 38 39 48 54 44 16
-4 17 -3 5 5 -13 10 -13 12 0 21 8 5 20 10 25 10 6 0 4 -4 -4 -9 -9 -6 -10
-11 -2 -15 11 -7 14 1 14 36 0 9 2 17 6 16 19 -2 31 3 26 12 -8 14 28 13 42
-1 8 -8 13 -7 18 2 5 8 4 10 -3 5 -7 -4 -12 -2 -12 3 0 6 0 14 0 18 0 4 5 8
12 9 7 1 31 10 53 19 22 10 43 17 48 17 4 -1 7 3 7 8 0 6 6 10 13 9 20 -4 96
12 125 26 15 8 64 19 110 25 88 12 135 27 126 41 -9 15 30 -4 43 -20z"/>
<path d="M3455 3350 c3 -5 8 -10 11 -10 2 0 4 5 4 10 0 6 -5 10 -11 10 -5 0
-7 -4 -4 -10z"/>
<path d="M3206 3032 c-3 -5 1 -9 9 -9 8 0 12 4 9 9 -3 4 -7 8 -9 8 -2 0 -6 -4
-9 -8z"/>
<path d="M3016 3007 c3 -10 9 -15 12 -12 3 3 0 11 -7 18 -10 9 -11 8 -5 -6z"/>
<path d="M3139 2903 c-12 -16 -12 -17 2 -6 9 7 20 9 24 5 5 -4 5 -1 1 6 -9 16
-11 15 -27 -5z"/>
<path d="M2856 2733 c-6 -14 -5 -15 5 -6 7 7 10 15 7 18 -3 3 -9 -2 -12 -12z"/>
<path d="M2815 2730 c-3 -6 1 -7 9 -4 18 7 21 14 7 14 -6 0 -13 -4 -16 -10z"/>
<path d="M2981 2704 c7 -9 6 -21 -7 -41 l-16 -28 20 25 c23 27 25 57 5 57 -9
0 -10 -4 -2 -13z"/>
<path d="M2785 2659 c-4 -6 -5 -12 -2 -15 2 -3 7 2 10 11 7 17 1 20 -8 4z"/>
<path d="M2748 2523 c7 -3 16 -2 19 1 4 3 -2 6 -13 5 -11 0 -14 -3 -6 -6z"/>
<path d="M3620 3396 c0 -2 7 -7 16 -10 8 -3 12 -2 9 4 -6 10 -25 14 -25 6z"/>
<path d="M3560 3339 c0 -5 5 -7 10 -4 6 3 10 8 10 11 0 2 -4 4 -10 4 -5 0 -10
-5 -10 -11z"/>
<path d="M3330 3019 c-13 -9 -12 -10 3 -5 11 3 16 2 12 -4 -3 -6 -13 -10 -21
-10 -8 0 -14 -5 -14 -11 0 -5 5 -7 10 -4 6 3 10 -1 10 -10 0 -9 4 -14 9 -11 5
3 14 -1 21 -9 7 -8 20 -15 29 -15 9 0 29 -14 46 -31 22 -22 29 -38 27 -62 -2
-17 -7 -36 -12 -41 -15 -15 19 -47 39 -37 9 5 18 9 21 9 21 2 40 17 36 29 -3
8 -1 11 4 8 6 -3 10 1 10 10 0 9 4 14 9 11 5 -4 7 4 4 16 -4 19 -3 20 6 8 15
-21 14 -9 -4 34 -8 20 -20 36 -26 36 -5 0 -8 3 -6 8 2 4 -4 15 -15 25 -10 9
-18 14 -18 11 0 -4 -6 -1 -13 5 -8 6 -17 8 -21 4 -3 -4 -12 0 -19 9 -6 9 -28
18 -47 21 -19 3 -42 8 -50 11 -8 3 -22 1 -30 -5z m123 -54 c60 -28 97 -65 97
-97 0 -11 -15 -35 -34 -54 -39 -39 -66 -47 -42 -12 40 56 4 131 -79 165 -47
19 -62 39 -22 29 13 -3 49 -17 80 -31z"/>
</g>
</svg>
